<?xml version="1.0" encoding="utf-8"?>
<!-- Generator: Adobe Illustrator 28.0.0, SVG Export Plug-In . SVG Version: 6.00 Build 0)  -->
<svg version="1.1" id="Layer_1" xmlns="http://www.w3.org/2000/svg" xmlns:xlink="http://www.w3.org/1999/xlink" x="0px" y="0px"
	 viewBox="0 0 1000 1000" style="enable-background:new 0 0 1000 1000;" xml:space="preserve">
<style type="text/css">
	.st0{fill:#1D63ED;}
</style>
<g>
	<g>
		<path class="st0" d="M911.69,449.25c-18.54-12.48-67.26-17.81-102.68-8.27c-1.91-35.28-20.1-65.01-53.38-90.95l-12.32-8.27
			l-8.21,12.4c-16.14,24.5-22.94,57.14-20.53,86.81c1.9,18.28,8.26,38.83,20.53,53.74c-46.1,26.74-88.59,20.67-276.77,20.67
			l-290.53,0c-0.85,42.49,5.98,124.23,57.96,190.77c5.74,7.35,12.04,14.46,18.87,21.31c42.26,42.32,106.11,73.35,201.59,73.44
			c145.66,0.13,270.46-78.6,346.37-268.97c24.98,0.41,90.92,4.48,123.19-57.88c0.79-1.05,8.21-16.54,8.21-16.54L911.69,449.25z
			 M357.41,405.39h-81.7v81.7h81.7V405.39z M462.96,405.39h-81.7v81.7h81.7V405.39z M568.51,405.39h-81.7v81.7h81.7V405.39z
			 M674.05,405.39h-81.7v81.7h81.7V405.39z M251.86,405.39h-81.7v81.7h81.7V405.39z M357.41,302.2h-81.7v81.7h81.7V302.2z
			 M462.96,302.2h-81.7v81.7h81.7V302.2z M568.51,302.2h-81.7v81.7h81.7V302.2z M568.51,199h-81.7v81.7h81.7V199z"/>
	</g>
</g>
</svg>
